<svg width="72" height="72" viewBox="0 0 72 72" fill="none"
                                    xmlns="http://www.w3.org/2000/svg">
                                    <g clip-path="url(#clip0_2_4255)">
                                        <g clip-path="url(#clip1_2_4255)">
                                            <path
                                                d="M51.75 2.25H20.25C18.4603 2.25179 16.7445 2.96352 15.479 4.229C14.2135 5.49449 13.5018 7.21034 13.5 9V63C13.5018 64.7897 14.2135 66.5055 15.479 67.771C16.7445 69.0365 18.4603 69.7482 20.25 69.75H51.75C53.5397 69.7482 55.2555 69.0365 56.521 67.771C57.7865 66.5055 58.4982 64.7897 58.5 63V9C58.4982 7.21034 57.7865 5.49449 56.521 4.229C55.2555 2.96352 53.5397 2.25179 51.75 2.25ZM56.25 63C56.25 64.1935 55.7759 65.3381 54.932 66.182C54.0881 67.0259 52.9435 67.5 51.75 67.5H20.25C19.0565 67.5 17.9119 67.0259 17.068 66.182C16.2241 65.3381 15.75 64.1935 15.75 63V9C15.75 7.80653 16.2241 6.66193 17.068 5.81802C17.9119 4.97411 19.0565 4.5 20.25 4.5H51.75C52.9435 4.5 54.0881 4.97411 54.932 5.81802C55.7759 6.66193 56.25 7.80653 56.25 9V63Z"
                                                fill="#2DC071" />
                                            <path
                                                d="M38.25 58.5H33.75C32.8549 58.5 31.9964 58.8556 31.3635 59.4885C30.7306 60.1215 30.375 60.9799 30.375 61.875C30.375 62.7701 30.7306 63.6285 31.3635 64.2615C31.9964 64.8944 32.8549 65.25 33.75 65.25H38.25C39.1451 65.25 40.0035 64.8944 40.6365 64.2615C41.2694 63.6285 41.625 62.7701 41.625 61.875C41.625 60.9799 41.2694 60.1215 40.6365 59.4885C40.0035 58.8556 39.1451 58.5 38.25 58.5ZM38.25 63H33.75C33.4516 63 33.1655 62.8815 32.9545 62.6705C32.7435 62.4595 32.625 62.1734 32.625 61.875C32.625 61.5766 32.7435 61.2905 32.9545 61.0795C33.1655 60.8685 33.4516 60.75 33.75 60.75H38.25C38.5484 60.75 38.8345 60.8685 39.0455 61.0795C39.2565 61.2905 39.375 61.5766 39.375 61.875C39.375 62.1734 39.2565 62.4595 39.0455 62.6705C38.8345 62.8815 38.5484 63 38.25 63Z"
                                                fill="#2DC071" />
                                            <path d="M28.125 6.75H30.375V9H28.125V6.75Z" fill="#2DC071" />
                                            <path d="M32.625 6.75H39.375V9H32.625V6.75Z" fill="#2DC071" />
                                            <path
                                                d="M35.2042 31.1703C35.4151 31.3812 35.7012 31.4997 35.9995 31.4997C36.2979 31.4997 36.584 31.3812 36.7949 31.1703L44.7498 23.2154C45.7971 22.1589 46.3832 20.7306 46.3799 19.2431C46.3767 17.7555 45.7843 16.3298 44.7324 15.2779C43.6805 14.226 42.2548 13.6336 40.7673 13.6304C39.2797 13.6271 37.8514 14.2133 36.7949 15.2605L35.9995 16.0559L35.2042 15.2605C34.1477 14.2133 32.7194 13.6271 31.2318 13.6304C29.7443 13.6336 28.3185 14.226 27.2667 15.2779C26.2148 16.3298 25.6224 17.7555 25.6192 19.2431C25.6159 20.7306 26.202 22.1589 27.2493 23.2154L35.2042 31.1703ZM28.84 16.8513C29.1534 16.5378 29.5255 16.2892 29.935 16.1195C30.3445 15.9499 30.7835 15.8625 31.2267 15.8625C31.67 15.8625 32.1089 15.9499 32.5184 16.1195C32.9279 16.2892 33.3 16.5378 33.6134 16.8513L35.2042 18.4431C35.4191 18.6464 35.7037 18.7597 35.9995 18.7597C36.2954 18.7597 36.58 18.6464 36.7949 18.4431L38.3857 16.8513C39.0187 16.2183 39.8772 15.8627 40.7724 15.8627C41.6675 15.8627 42.5261 16.2183 43.159 16.8513C43.792 17.4843 44.1476 18.3428 44.1476 19.238C44.1476 20.1331 43.792 20.9917 43.159 21.6246L35.9995 28.7841L28.84 21.6246C28.2084 20.991 27.8536 20.1327 27.8536 19.238C27.8536 18.3432 28.2084 17.4849 28.84 16.8513Z"
                                                fill="#2DC071" />
                                            <path
                                                d="M43.7625 41.1223C43.6638 40.9173 43.5045 40.7476 43.306 40.6363C43.1076 40.525 42.8797 40.4775 42.6533 40.5002C42.4286 40.5195 42.215 40.6059 42.0401 40.7482C41.8652 40.8904 41.737 41.0819 41.6722 41.2978L39.5561 48.3493L37.1003 36.8856C37.0467 36.6396 36.9122 36.4186 36.7182 36.2581C36.5243 36.0976 36.2821 36.0068 36.0304 36.0002C35.7779 35.9913 35.5299 36.0686 35.3271 36.2192C35.1243 36.3699 34.9788 36.585 34.9144 36.8293L32.6003 45.3174L31.4572 41.3158C31.3958 41.097 31.2694 40.902 31.0949 40.7564C30.9204 40.6108 30.7059 40.5215 30.4796 40.5002C30.2534 40.4773 30.0257 40.5242 29.827 40.6346C29.6282 40.745 29.4681 40.9136 29.3681 41.1178L27.4297 45.0002H20.25V47.2502H28.125C28.3341 47.2503 28.539 47.1921 28.7169 47.0822C28.8947 46.9724 29.0384 46.8151 29.1319 46.6281L30.0881 44.7156L31.5428 49.8096C31.61 50.0447 31.752 50.2515 31.9473 50.3986C32.1426 50.5458 32.3805 50.6253 32.625 50.6252H32.6318C32.8774 50.6238 33.1159 50.5419 33.3107 50.3922C33.5056 50.2425 33.646 50.0331 33.7106 49.7961L35.8695 41.8817L38.2747 53.1103C38.327 53.3546 38.4591 53.5745 38.6501 53.7354C38.8412 53.8964 39.0804 53.9891 39.33 53.9991H39.375C39.617 53.9991 39.8526 53.921 40.0468 53.7765C40.2409 53.632 40.3833 53.4288 40.4528 53.1969L43.0121 44.6627L43.9931 46.6247C44.0861 46.8123 44.2296 46.9703 44.4075 47.0808C44.5854 47.1913 44.7906 47.25 45 47.2502H51.75V45.0002H45.6952L43.7625 41.1223Z"
                                                fill="#2DC071" />
                                        </g>
                                    </g>
                                    <defs>
                                        <clipPath id="clip0_2_4255">
                                            <rect width="72" height="72" fill="white" />
                                        </clipPath>
                                        <clipPath id="clip1_2_4255">
                                            <rect width="45" height="67.5" fill="white"
                                                transform="translate(13.5 2.25)" />
                                        </clipPath>
                                    </defs>
                                </svg>